<svg xmlns="http://www.w3.org/2000/svg" xmlns:xlink="http://www.w3.org/1999/xlink" class="detailIcon" version="1.1" viewBox="0 0 220 220"><title>icons copy 15</title><desc>Created with Sketch.</desc><g id="Page-1" fill="none" fill-rule="evenodd" stroke="none" stroke-width="1"><g id="icons-copy-14"><g id="Page-1" fill="#FFF"><path id="Stroke-8" d="M110.149347,219.853118 C170.603266,219.853118 219.608198,170.795821 219.608198,110.277303 C219.608198,49.7587844 170.603266,0.701487811 110.149347,0.701487811 C49.6954285,0.701487811 0.690497275,49.7587844 0.690497275,110.277303 C0.690497275,170.795821 49.6954285,219.853118 110.149347,219.853118 L110.149347,219.853118 Z"/></g><g id="Group" fill="#000" transform="translate(35.000000, 130.000000)"><rect id="Rectangle-Copy-2" width="40" height="19.946" x="110" y=".988" class="cube" rx="3"/><rect id="Rectangle-Copy" width="40" height="19.946" x="0" y="1" class="cube" rx="3"/><rect id="Rectangle" width="40" height="19.946" x="55" y="1" class="cube" rx="3"/></g><rect id="Rectangle-Copy-3" width="40" height="19.946" x="90" y="52" fill="#000" class="cube" rx="3"/><rect id="Rectangle-2" width="3" height="70.082" x="109" y="70" fill="#000" class="cube"/><rect id="Rectangle-2" width="3" height="33.673" x="54" y="99.409" fill="#000" class="cube"/><rect id="Rectangle-2-Copy" width="3" height="33.673" x="163" y="99.409" fill="#000" class="cube"/><rect id="Rectangle-2" width="3" height="112" x="108.5" y="44.5" fill="#000" class="cube" transform="translate(110.000000, 100.500000) rotate(-270.000000) translate(-110.000000, -100.500000)"/></g></g></svg>